<svg xmlns="http://www.w3.org/2000/svg" xmlns:xlink="http://www.w3.org/1999/xlink" viewBox="0 0 800 383">
  <defs>
    <radialGradient id="a" cx="103.21" cy="109.49" r="62.15" gradientUnits="userSpaceOnUse">
      <stop offset="0" stop-color="#efeded"/>
      <stop offset="1" stop-color="#cac6c6"/>
    </radialGradient>
    <radialGradient id="b" cx="188.44" cy="149.85" r="16.45" gradientUnits="userSpaceOnUse">
      <stop offset="0" stop-color="#131921"/>
      <stop offset="1" stop-color="#160808"/>
    </radialGradient>
    <radialGradient id="c" cx="18.07" cy="149.85" r="16.45" xlink:href="#b"/>
    <clipPath id="d">
      <polygon points="186.75 148.82 226.79 83.5 200.81 21.53 134 0 31.94 9.65 4.85 103.55 25.07 148.82 186.75 148.82" fill="none"/>
    </clipPath>
    <clipPath id="f">
      <path d="M167,157.78c1.29-8.71.18-17.21.41-25.79-.26-14.12-3.76-28.36-8.3-41.29C154.34,77,145.68,63.46,132,56.5c-8.1-4.34-19.08-6.64-28.24-6.73v0l-.58,0-.57,0v0c-9.16.09-20.15,2.39-28.24,6.73-14,6.16-22.2,20.87-27.11,34.2-4.81,13.06-8,27.17-8.3,41.29.23,8.58-.88,17.08.41,25.79.58,2.92.18,6.54,2.13,9,3.93,2.27,8.62-.53,12.67-.56,8.15-.58,16.59,2.36,24.85,2.35,8.07.58,16.16.68,24.16.68s16.1-.1,24.17-.68c8.26,0,16.7-2.93,24.85-2.35,4.05,0,8.74,2.83,12.67.56C166.85,164.32,166.45,160.7,167,157.78Z" fill="url(#a)"/>
    </clipPath>
    <radialGradient id="g" cx="121.21" cy="54.37" r="64.85" xlink:href="#a"/>
    <radialGradient id="h" cx="104.76" cy="158.37" r="59.2" gradientUnits="userSpaceOnUse">
      <stop offset="0" stop-color="#868181"/>
      <stop offset="1" stop-color="#7a7575"/>
    </radialGradient>
    <clipPath id="i">
      <path d="M67.41,138.05l-1.61-.16c-1.79-.2-3.81-.46-4.92-1.89a5.15,5.15,0,0,1-.84-3.74c.12-1.18.27-2.35.43-3.55.38-3,1.11-9.54,1.56-12.61s.9-6.14,1.31-9.22a10.18,10.18,0,0,1,.69-3.54,10.72,10.72,0,0,1,.77-1.13c1.46-2.1,3.7-2.54,6-2.49,21.9.45,43.87.63,65.77.07,1.95-.05,4.31.74,4.79,2.9,2.17,9.85,4.34,19.88,5.8,29.91.47,2.69-.46,5.1-3.4,5.53a16.16,16.16,0,0,1-2,.14c-1.69,0-3.38,0-5.07,0q-3.69,0-7.39-.05l-9-.09-10-.09-10.33,0-7.75,0h-1.9a3.44,3.44,0,0,1-.56,0,4.68,4.68,0,0,0-.75,0h-3.2l-6.42,0c-2.14,0-4.28,0-6.41.06l-2.82,0c-.46,0-.93,0-1.39,0A9.74,9.74,0,0,1,67.41,138.05Z" fill="none"/>
    </clipPath>
    <linearGradient id="j" x1="60" y1="119.01" x2="147.27" y2="119.01" gradientUnits="userSpaceOnUse">
      <stop offset="0" stop-color="#f0f1f4"/>
      <stop offset="1" stop-color="#e9ecf2"/>
    </linearGradient>
    <radialGradient id="k" cx="85.27" cy="123.59" r="4.64" xlink:href="#b"/>
    <radialGradient id="l" cx="120.27" cy="124.7" r="4.64" xlink:href="#b"/>
    <symbol id="m" data-name="Over Edge" viewBox="0 0 226.79 195.29">
      <path d="M36.16,148.82a13.54,13.54,0,0,0-.21-2.2,5.21,5.21,0,0,0-1.2-2.77c-1-1.15-2.68-1.18-4.11-1.14a12.74,12.74,0,0,0-4.21.65,4.77,4.77,0,0,0-2.94,2.91,4,4,0,0,0,.17,2.55Z" fill="#050c13"/>
      <path d="M183,146.27a4.74,4.74,0,0,0-2.94-2.91,12.7,12.7,0,0,0-4.21-.65c-1.42,0-3.08,0-4.11,1.14a5.12,5.12,0,0,0-1.19,2.77,12.51,12.51,0,0,0-.21,2.2h8.55v3.48a8,8,0,0,0,2.46-1.39A4.67,4.67,0,0,0,183,146.27Z" fill="#050c13"/>
      <path d="M177.67,137.05a17.52,17.52,0,0,1,14.15-.68,24.19,24.19,0,0,1,11.21,9,17.61,17.61,0,0,1,3.47,9,9.78,9.78,0,0,1-3.82,8.55c-2.49,1.71-5.76,1.84-8.73,1.25A21,21,0,0,1,180,154.31c-1.09-1.86-1.93-3.94-3.55-5.35a5,5,0,0,0-3.64-1.24c-1,.09-2.55,1.11-2.47-.53.11-2.64,1.84-5.43,3.59-7.3A14.21,14.21,0,0,1,177.67,137.05Z" fill="url(#b)"/>
      <path d="M28.85,137.05a17.54,17.54,0,0,0-14.16-.68,24.17,24.17,0,0,0-11.2,9,17.63,17.63,0,0,0-3.48,9,9.83,9.83,0,0,0,3.82,8.55c2.49,1.71,5.77,1.84,8.73,1.25a21.08,21.08,0,0,0,13.92-9.88c1.08-1.86,1.92-3.94,3.54-5.35a5,5,0,0,1,3.65-1.24c1,.09,2.54,1.11,2.47-.53-.12-2.64-1.85-5.43-3.6-7.3A14.33,14.33,0,0,0,28.85,137.05Z" fill="url(#c)"/>
      <g clip-path="url(#d)">
        <circle cx="134.63" cy="37.86" r="2.23" fill="#313946"/>
        <path d="M96.41,54.24a23.05,23.05,0,0,1,22.46-26.61c2.44,0,5.79.4,8,2.63a7.2,7.2,0,0,1,2,6,34.85,34.85,0,0,1,6.31,1.56l-.17.47a34.7,34.7,0,0,0-6.22-1.54,6.63,6.63,0,0,1-.29,1,7.2,7.2,0,0,1-6.1,4.59,4.87,4.87,0,0,1-4-1.68,2.52,2.52,0,0,1-.49-2.39c.46-1.43,2.08-2.27,4.57-2.36a34.93,34.93,0,0,1,5.86.29,6.82,6.82,0,0,0-1.83-5.55c-2.08-2.1-5.33-2.5-7.63-2.48a22.56,22.56,0,0,0-22,26Zm27.31-17.89-1.22,0c-1.31.05-3.59.38-4.11,2a2,2,0,0,0,.4,1.93,4.37,4.37,0,0,0,3.55,1.49A6.77,6.77,0,0,0,128,37.54a7,7,0,0,0,.26-.89A34.62,34.62,0,0,0,123.72,36.35Z" fill="#303944"/>
        <g>
          <path d="M167,157.78c1.29-8.71.18-17.21.41-25.79-.26-14.12-3.76-28.36-8.3-41.29C154.34,77,145.68,63.46,132,56.5c-8.1-4.34-19.08-6.64-28.24-6.73v0l-.58,0-.57,0v0c-9.16.09-20.15,2.39-28.24,6.73-14,6.16-22.2,20.87-27.11,34.2-4.81,13.06-8,27.17-8.3,41.29.23,8.58-.88,17.08.41,25.79.58,2.92.18,6.54,2.13,9,3.93,2.27,8.62-.53,12.67-.56,8.15-.58,16.59,2.36,24.85,2.35,8.07.58,16.16.68,24.16.68s16.1-.1,24.17-.68c8.26,0,16.7-2.93,24.85-2.35,4.05,0,8.74,2.83,12.67.56C166.85,164.32,166.45,160.7,167,157.78Z" fill="url(#a)"/>
          <g clip-path="url(#f)">
            <path d="M169.8,159.88c1.35-9.08.19-18,.43-26.92-.27-14.72-3.92-29.58-8.66-43.07-5-14.26-14-28.43-28.29-35.69-8.45-4.53-19.91-6.94-29.47-7v0l-.6,0-.59,0v0c-9.56.08-21,2.49-29.47,7C58.5,60.62,50,76,44.86,89.89c-5,13.62-8.4,28.35-8.66,43.07.24,9-.92,17.84.43,26.92.6,3.05.18,6.83,2.22,9.4,4.1,2.36,9-.56,13.22-.59,8.5-.61,17.31,2.46,25.93,2.45,8.42.6,16.86.7,25.21.7s16.8-.1,25.22-.7c8.62,0,17.43-3.06,25.93-2.45,4.23,0,9.12,2.95,13.22.59C169.62,166.71,169.2,162.93,169.8,159.88Z" fill="url(#g)"/>
            <path d="M29.62,142.39c-.19-6.11,1.87-14.39,8.93-15.27,10,.12,14.34,15.81,25.42,16.27,20.35,1.17,40.65,1.8,61.05,1.23,11.53.11,25.56,1.66,30.57-11.42,2.09-3.56,1.83-8.73,6-10.91,5.27-2.88,11.1,2.11,13.33,6.63,21.7,77.92-31,66.09-87.19,65.26-18.28-.55-39.06-2.11-52.15-16.41A97.07,97.07,0,0,1,29.62,142.39Z" opacity="0.1" fill="url(#h)" style="mix-blend-mode: multiply"/>
          </g>
        </g>
        <g clip-path="url(#i)">
          <path d="M67.41,138.05l-1.61-.16c-1.79-.2-3.81-.46-4.92-1.89a5.15,5.15,0,0,1-.84-3.74c.12-1.18.27-2.35.43-3.55.38-3,1.11-9.54,1.56-12.61s.9-6.14,1.31-9.22a10.18,10.18,0,0,1,.69-3.54,10.72,10.72,0,0,1,.77-1.13c1.46-2.1,3.7-2.54,6-2.49,21.9.45,43.87.63,65.77.07,1.95-.05,4.31.74,4.79,2.9,2.17,9.85,4.34,19.88,5.8,29.91.47,2.69-.46,5.1-3.4,5.53a16.16,16.16,0,0,1-2,.14c-1.69,0-3.38,0-5.07,0q-3.69,0-7.39-.05l-9-.09-10-.09-10.33,0-7.75,0h-1.9a3.44,3.44,0,0,1-.56,0,4.68,4.68,0,0,0-.75,0h-3.2l-6.42,0c-2.14,0-4.28,0-6.41.06l-2.82,0c-.46,0-.93,0-1.39,0A9.74,9.74,0,0,1,67.41,138.05Z" fill="url(#j)"/>
          <path d="M150.83,105.58q-47-1.24-93.85,0c.26-4.91.38-7.36.64-12.27q46.34-1.16,92.59,0C150.46,98.22,150.59,100.67,150.83,105.58Z" fill="#6e7785" opacity="0.08" style="mix-blend-mode: multiply"/>
          <path d="M139.6,104.36c-.61-3.57-6.07-4.77-6.07-4.77,4-1.18,6-1.77,10-2.92,1,5.45,1.55,8.17,2.6,13.63,1.32,9.06,5.91,22.09,2.94,28.86-.07.17-8.08,1.07-8.08,1.07l-3.08-2.18s7.26-.77,6.84-5.33C143.91,123.24,141.2,113.7,139.6,104.36Z" fill="#9999a3"/>
          <path d="M66.21,104.93c.61-6,6.39-5.34,6.39-5.34-4-1.18-6-1.77-10-2.92-1,5.45-1.58,8.17-2.64,13.62-1.35,9.07-6,22.09-3,28.87.08.17,8.08,1.07,8.08,1.07l3.09-2.18s-5.08-.81-4.87-5A239.1,239.1,0,0,1,66.21,104.93Z" fill="#9999a3"/>
        </g>
        <path d="M73.38,100C78.19,100,83,99.9,87.8,99.9l14.41-.06,14.41.06q7.22,0,14.41.12v.12q-7.2.1-14.41.13l-14.41.06-14.41-.06q-7.22,0-14.42-.13Z" fill="#fff"/>
        <ellipse cx="85.27" cy="123.59" rx="4.82" ry="4.45" fill="url(#k)"/>
        <ellipse cx="120.27" cy="124.7" rx="4.82" ry="4.45" fill="url(#l)"/>
        <path d="M35.32,151.15c-.76-2.38-.51-5.82,1.94-6.35a5.2,5.2,0,0,1,2.75.46,186,186,0,0,0,84.16,9.61c9-1.05,17.8-2.75,26.64-4.45,5.27-1,10.8-2.15,14.85-5.66,1.47-1.27,3.48-2.92,5.06-1.8a3.93,3.93,0,0,1,1.22,2.78q.93,6.48,1.67,13c.49,4.33.88,8.94-1.07,12.85-1.83,3.65-5.51,6.11-9.41,7.35s-8,1.4-12.13,1.5c-28.15.73-56.31-.77-84.43-2.27-4.48-.24-9-.5-13.22-2.15a27.85,27.85,0,0,1-10.15-7.44,57.87,57.87,0,0,1-4-5c-.64-.88-1.27-1.77-1.88-2.67-.47-.68-1.45-1.65-1.41-2.53a11,11,0,0,1,.47-1.55,5.83,5.83,0,0,0,0-1.91A23.31,23.31,0,0,0,35.32,151.15Z" fill="none"/>
      </g>
      <ellipse cx="189.18" cy="139.42" rx="2.23" ry="4.7" transform="translate(11.56 293.3) rotate(-77.29)" fill="#3b4453"/>
      <ellipse cx="119.53" cy="56.78" rx="2.23" ry="4.7" transform="translate(37.84 160.89) rotate(-77.29)" fill="#fff"/>
    </symbol>
  </defs>
  <rect y="148" width="800" height="235" rx="16" fill="#03cfbb"/>
  <text transform="translate(164.52 293.64)" font-size="75.71" fill="#fff" font-family="FiraSans-Bold, Fira Sans" font-weight="700" letter-spacing="0em">H<tspan x="50.49" y="0" letter-spacing="-0.01em">a</tspan><tspan x="91.3" y="0" letter-spacing="0em">ll of G</tspan><tspan x="292.67" y="0" letter-spacing="-0.03em">r</tspan><tspan x="320.83" y="0" letter-spacing="-0.01em">e</tspan><tspan x="361.94" y="0" letter-spacing="0em">at</tspan><tspan x="432.8" y="0" letter-spacing="0.02em">s</tspan></text>
  <g opacity="0.6">
    <path d="M733.31,301.05h0a1.73,1.73,0,0,0,1.94-2.23,13,13,0,0,0-1-2.37,9.58,9.58,0,0,0-3.36-3.37,24,24,0,0,0-4.5-2.07,1.73,1.73,0,0,1-1.06-2.21l1.62-4.61a1.76,1.76,0,0,1,2.2-1.07,42.37,42.37,0,0,1,7.46,3.19,18.84,18.84,0,0,1,5.88,5.06,20.82,20.82,0,0,1,3.36,7.31,57.87,57.87,0,0,1,1.57,10.48q.66,8.58,1.6,14.74a72.86,72.86,0,0,0,2.37,10.73,47.14,47.14,0,0,0,2.46,6.28,1.72,1.72,0,0,1-1.32,2.44l-8.59,1.24a1.75,1.75,0,0,1-1.85-1,50.12,50.12,0,0,1-2.55-7.8,66.77,66.77,0,0,1-1.58-10.85q-.23-3-.32-6.53a1.74,1.74,0,0,0-3.32-.65l-9.85,22.36a1.73,1.73,0,0,1-2.25.91l-7.89-3.29a1.73,1.73,0,0,1-.86-2.43l18.08-33.34A1.74,1.74,0,0,1,733.31,301.05Z" fill="#a6f787"/>
  </g>
  <g opacity="0.6">
    <path d="M64.06,188.51l8.22,37.94a1.52,1.52,0,0,1-1,1.77L34.4,240.37a1.52,1.52,0,0,1-1.9-.94l-3.19-9a1.52,1.52,0,0,1,1-2l7.58-2.41A75.51,75.51,0,0,1,45.32,224c.81-.18,1.62-.33,2.43-.47a1.51,1.51,0,0,0,.5-2.81L22.69,206.11a1.52,1.52,0,0,1-.56-2.08l4.39-7.68a1.52,1.52,0,0,1,2.08-.56l25.59,14.64a1.53,1.53,0,0,0,2.17-1.89l0,0q-.83-2.2-1.49-4.63c-.44-1.61-.89-3.33-1.33-5.14L51.74,191a1.52,1.52,0,0,1,1.2-1.83l9.35-1.81A1.52,1.52,0,0,1,64.06,188.51Z" fill="#2aa8f8"/>
  </g>
  <use width="226.79" height="195.29" transform="translate(69.5 -2)" xlink:href="#m"/>
</svg>
